<svg width="27" height="27" viewBox="0 0 27 27" fill="none" xmlns="http://www.w3.org/2000/svg">
<path d="M13.5 0C9.83007 0 9.3727 0.017721 7.93646 0.0784786C6.49431 0.149362 5.51882 0.372984 4.65808 0.707151C3.77035 1.05482 3.01425 1.51641 2.26744 2.26744C1.51556 3.01425 1.04976 3.77035 0.707151 4.65808C0.372984 5.51882 0.149362 6.49431 0.0784786 7.93646C0.0135017 9.37355 0 9.83007 0 13.5C0 17.1699 0.017721 17.6273 0.0784786 19.0635C0.149362 20.5015 0.372984 21.4812 0.707151 22.3419C1.05482 23.2297 1.51641 23.9858 2.26744 24.7326C3.01425 25.4844 3.77035 25.9502 4.65808 26.2929C5.51882 26.6228 6.49853 26.8506 7.93646 26.9215C9.37355 26.9865 9.83007 27 13.5 27C17.1699 27 17.6273 26.9823 19.0635 26.9215C20.5015 26.8506 21.4812 26.622 22.3419 26.2929C23.2297 25.9452 23.9857 25.4836 24.7326 24.7326C25.4844 23.9858 25.9502 23.2339 26.2928 22.3419C26.6228 21.4812 26.8506 20.5015 26.9215 19.0635C26.9865 17.6265 27 17.1699 27 13.5C27 9.83007 26.9823 9.3727 26.9215 7.93646C26.8506 6.49853 26.622 5.51375 26.2928 4.65808C25.9452 3.77035 25.4836 3.01425 24.7326 2.26744C23.9857 1.51556 23.2339 1.04976 22.3419 0.707151C21.4812 0.372984 20.5015 0.149362 19.0635 0.0784786C17.6265 0.0135017 17.1699 0 13.5 0ZM13.5 2.4303C17.1041 2.4303 17.5345 2.44802 18.9589 2.50878C20.2728 2.57038 20.9884 2.78979 21.4635 2.97543C22.0972 3.221 22.5402 3.51128 23.0195 3.98553C23.4896 4.45556 23.7798 4.90364 24.0254 5.53738C24.2111 6.01247 24.4305 6.72806 24.4921 8.04194C24.5528 9.46637 24.5705 9.89758 24.5705 13.5008C24.5705 17.1041 24.5528 17.5353 24.487 18.9597C24.4161 20.2736 24.1967 20.9892 24.0119 21.4643C23.7562 22.098 23.471 22.5411 23.0001 23.0204C22.525 23.4904 22.0727 23.7807 21.4441 24.0263C20.9749 24.2119 20.2492 24.4313 18.9302 24.4929C17.4982 24.5537 17.0763 24.5714 13.4629 24.5714C9.84948 24.5714 9.4284 24.5537 7.99469 24.4878C6.6808 24.417 5.95593 24.1976 5.48084 24.0128C4.83951 23.7571 4.39986 23.4718 3.92899 23.001C3.4539 22.5259 3.1518 22.0736 2.9189 21.4449C2.72987 20.9757 2.51385 20.25 2.44381 18.9311C2.39571 17.5159 2.37292 17.0771 2.37292 13.4806C2.37292 9.88577 2.39571 9.44612 2.44381 8.01325C2.51385 6.69431 2.72987 5.97028 2.9189 5.49941C3.1518 4.85723 3.45474 4.41843 3.92899 3.94334C4.39902 3.47331 4.83951 3.16952 5.48084 2.93155C5.95593 2.74675 6.66308 2.52735 7.98203 2.46153C9.41405 2.41005 9.83598 2.39149 13.4443 2.39149L13.5 2.4303ZM13.5 6.5711C9.66805 6.5711 6.56942 9.67396 6.56942 13.5017C6.56942 17.3336 9.67227 20.4323 13.5 20.4323C17.3319 20.4323 20.4306 17.3294 20.4306 13.5017C20.4306 9.66974 17.3277 6.5711 13.5 6.5711ZM13.5 18.002C11.0123 18.002 8.99972 15.9894 8.99972 13.5017C8.99972 11.014 11.0123 9.00141 13.5 9.00141C15.9877 9.00141 18.0003 11.014 18.0003 13.5017C18.0003 15.9894 15.9877 18.002 13.5 18.002ZM22.3301 6.29432C22.3301 7.19134 21.6002 7.91537 20.7074 7.91537C19.8104 7.91537 19.0863 7.19049 19.0863 6.29432C19.0863 5.40236 19.8154 4.67665 20.7074 4.67665C21.5993 4.67665 22.3301 5.40236 22.3301 6.29432Z" fill="white"/>
</svg>
