<svg width="27" height="27" viewBox="0 0 27 27" fill="none" xmlns="http://www.w3.org/2000/svg">
<path d="M24.1943 26.228L24.2222 26.1834L27 20.5451L18.8858 14.4594L15.1524 17.2593C13.7445 17.1755 12.4161 16.5784 11.4188 15.5811C10.4215 14.5838 9.82441 13.2554 9.74064 11.8474L12.5405 8.11411L6.45498 0L0.863796 2.75467L0.816589 2.77785L0.772052 2.80578C0.53519 2.95278 0.339893 3.15796 0.204754 3.40179C0.0696122 3.64562 -0.000870049 3.91997 9.23872e-06 4.19874V5.65363C9.23872e-06 8.45688 0.55215 11.2327 1.62491 13.8225C2.69767 16.4124 4.27004 18.7656 6.25224 20.7478C8.23444 22.73 10.5876 24.3024 13.1775 25.3751C15.7674 26.4479 18.5432 27 21.3464 27H22.8014C23.0802 27.0009 23.3545 26.9304 23.5983 26.7953C23.8422 26.6602 24.0473 26.4649 24.1943 26.228ZM21.3464 24.9164C10.7249 24.9164 2.08362 16.2751 2.08362 5.65363V4.47638L5.82521 2.6333L9.93611 8.1145L7.64746 11.1662V11.5134C7.64979 13.5919 8.47649 15.5846 9.94619 17.0543C11.4159 18.524 13.4086 19.3507 15.4871 19.353H15.8343L18.8859 17.0643L24.3668 21.1748L22.5234 24.9164H21.3464Z" fill="white"/>
</svg>
