<svg width="34" height="27" viewBox="0 0 34 27" fill="none" xmlns="http://www.w3.org/2000/svg">
<path d="M33.1547 3.21696C31.9329 3.7526 30.6249 4.12111 29.2464 4.28824C30.6529 3.44429 31.7284 2.10934 32.2412 0.519031C30.9218 1.2872 29.4623 1.8436 27.9104 2.15813C26.673 0.833564 24.9042 0 22.9412 0C19.1782 0 16.1284 3.04879 16.1284 6.80657C16.1284 7.3474 16.1938 7.86644 16.3069 8.35848C10.6464 8.09377 5.62837 5.37405 2.27232 1.2654C1.6827 2.26609 1.3474 3.42872 1.3474 4.69412C1.3474 7.06194 2.55259 9.13806 4.37439 10.3588C3.26055 10.3266 2.21211 10.0183 1.29343 9.51073V9.59273C1.29343 12.8948 3.63945 15.6478 6.75363 16.2747C6.18581 16.4253 5.57958 16.5125 4.96401 16.5125C4.52699 16.5125 4.10969 16.4699 3.69343 16.3931C4.56955 19.0962 7.07751 21.0644 10.0671 21.1235C7.74291 22.9453 4.79689 24.0311 1.62249 24.0311C1.08166 24.0311 0.541869 24.0052 0 23.9398C3.02803 25.8706 6.60208 27 10.4626 27C22.9889 27 29.8339 16.6246 29.8339 7.6391C29.8339 7.3526 29.8339 7.0609 29.8121 6.76817C31.1481 5.81626 32.3045 4.61003 33.218 3.24291L33.1547 3.21696Z" fill="white"/>
</svg>
